# xmcd
#
# Track frame offsets:
#	150
#	18694
#	35267
#	50979
#	64685
#	77690
#	91095
#	108310
#	123204
#	138668
#	152098
#	171103
#	183982
#	199730
#	208634
#	224238
#	238628
#	255256
#	266084
#	282519
#
# Disc length: 3962 seconds
#
# Revision: 1
# Processed by: cddbd v1.5.2PL0 Copyright (c) Steve Scherf et al.
# Submitted via: audiograbber 1.83.01
#
DISCID=280f7814
DTITLE=Diversen - Holland Party Vol.4
DYEAR=1900
DGENRE=
TTITLE0=BZN - Mon amour
TTITLE1=Marianne Weber - Ik zie lichtjes in je ogen
TTITLE2=Rene Schuurmans - Diep in m'n hart
TTITLE3=Nick and Simon - Als de zomer voorbij
TTITLE4=Gerard Joling - Liefde op 't eerste gezicht
TTITLE5=Herman van Veen - Opzij
TTITLE6=Dennis jones and Pussycat - Mississippi
TTITLE7=Janes - Een beetje meer
TTITLE8=Helemaal Hollands - Scheveningen
TTITLE9=Franky Boy - O mia bella Margarita
TTITLE10=Sunstreams - Aan de grens van de Duitse heuvelen
TTITLE11=Patrick - Geen geheimen
TTITLE12=Gebroeders Ko - Tringeling
TTITLE13=Mieke - Wals met me mee door de nacht
TTITLE14=Ed Nieman - Ga met me mee
TTITLE15=DJ Maarten - Hamelen
TTITLE16=John de Bever - Wanneer wanneer wanneer
TTITLE17=Goldfinger - Zilverdraden tussen goud
TTITLE18=Jan-Joost - De feestballade
TTITLE19=Feestteam - Vlieg met me mee naar de regenboog
EXTD=
EXTT0=
EXTT1=
EXTT2=
EXTT3=
EXTT4=
EXTT5=
EXTT6=
EXTT7=
EXTT8=
EXTT9=
EXTT10=
EXTT11=
EXTT12=
EXTT13=
EXTT14=
EXTT15=
EXTT16=
EXTT17=
EXTT18=
EXTT19=
PLAYORDER=
